<?xml version="1.0" standalone="no"?>
<!DOCTYPE svg PUBLIC "-//W3C//DTD SVG 20010904//EN"
 "http://www.w3.org/TR/2001/REC-SVG-20010904/DTD/svg10.dtd">
<svg version="1.0" xmlns="http://www.w3.org/2000/svg"
 width="337.000000pt" height="337.000000pt" viewBox="0 0 337.000000 337.000000"
 preserveAspectRatio="xMidYMid meet">
<metadata>
Created by potrace 1.14, written by Peter Selinger 2001-2017
</metadata>
<g transform="translate(0.000000,337.000000) scale(0.100000,-0.100000)"
fill="#000000" stroke="none">
<path d="M1618 3194 c-2 -1 -39 -5 -83 -8 -44 -3 -90 -8 -101 -10 -12 -2 -37
-7 -55 -10 -19 -3 -65 -15 -104 -26 -88 -26 -87 -26 -107 -34 -9 -4 -23 -8
-30 -10 -24 -3 -241 -113 -296 -150 -30 -20 -58 -36 -63 -36 -6 0 -7 -4 -4
-10 3 -5 1 -10 -4 -10 -17 0 -23 -3 -56 -35 -18 -16 -52 -48 -76 -70 -40 -37
-110 -112 -149 -161 -32 -40 -128 -190 -141 -221 -7 -17 -16 -30 -19 -28 -4 2
-7 -1 -7 -8 0 -7 -11 -37 -25 -67 -113 -246 -152 -593 -98 -858 5 -26 12 -59
15 -74 11 -61 16 -79 27 -105 6 -16 12 -30 13 -33 13 -52 36 -107 72 -177 18
-35 30 -63 28 -63 -3 0 -1 -6 5 -12 6 -7 29 -41 51 -75 22 -35 42 -63 45 -63
16 0 216 128 222 143 2 4 10 7 17 7 7 0 15 8 17 18 3 9 4 289 4 620 -1 393 2
606 9 610 11 7 124 11 140 5 10 -3 10 -1244 0 -1270 -5 -15 -181 -104 -189
-96 -3 4 -6 2 -6 -4 0 -6 -14 -16 -30 -23 -17 -7 -30 -16 -30 -21 0 -5 -5 -9
-10 -9 -6 0 -28 -12 -50 -26 l-40 -26 30 -38 c69 -87 278 -270 309 -270 6 0
11 -4 11 -8 0 -5 17 -16 37 -26 21 -9 56 -27 78 -39 39 -22 139 -67 160 -72 5
-1 24 -8 40 -14 17 -7 37 -14 45 -16 8 -3 40 -11 70 -20 30 -8 78 -18 105 -21
28 -4 55 -9 60 -12 14 -9 385 -11 385 -3 0 4 12 6 28 5 15 0 41 3 57 7 17 4
44 10 60 13 44 7 148 37 160 45 6 4 28 13 50 20 40 14 203 91 240 114 120 75
186 127 275 216 58 58 112 116 120 127 115 165 195 298 190 320 -1 4 2 10 8
13 14 9 85 224 98 298 33 177 35 346 9 528 -16 107 -68 286 -101 347 -8 15
-14 30 -14 33 2 8 -70 146 -91 177 -11 14 -19 31 -19 36 0 6 -3 12 -8 14 -4 2
-25 28 -46 58 -73 101 -192 220 -306 304 -209 154 -502 264 -746 282 -118 8
-183 11 -186 8z m-51 -953 c18 -1 15 -801 -3 -801 -7 0 -19 10 -25 23 -7 12
-25 38 -41 57 -15 19 -28 40 -28 46 0 7 -3 14 -7 16 -5 2 -33 39 -63 83 -30
44 -58 82 -62 83 -4 2 -8 10 -8 18 0 8 -3 14 -8 14 -4 0 -12 8 -17 19 -15 28
-88 134 -107 155 -10 10 -15 23 -12 28 3 4 1 8 -4 8 -4 0 -39 46 -77 103 -38
56 -75 108 -82 115 -13 14 -16 25 -9 33 3 3 508 3 553 0z m369 -4 c11 -10 11
-327 1 -327 -5 0 -5 -5 -1 -12 9 -14 9 -92 0 -107 -4 -6 -3 -11 2 -11 5 0 7
-21 6 -47 -3 -34 -1 -42 5 -28 5 11 7 23 4 27 -5 9 47 88 58 88 5 0 9 5 9 11
0 6 18 33 40 59 22 26 40 52 40 58 0 6 3 12 8 14 11 5 112 137 112 147 0 5 4
11 8 13 5 2 27 29 50 61 24 31 46 57 50 58 4 0 62 1 128 2 86 2 121 -1 120 -9
-2 -14 -57 -88 -68 -92 -4 -2 -8 -10 -8 -17 0 -7 -3 -15 -8 -17 -4 -1 -26 -28
-49 -58 -24 -30 -49 -62 -56 -70 -7 -8 -35 -44 -63 -80 -27 -35 -59 -76 -71
-90 -13 -14 -23 -28 -23 -32 0 -4 -10 -17 -22 -30 -39 -39 -34 -54 49 -151 43
-51 81 -93 85 -95 5 -2 8 -8 8 -12 0 -5 10 -20 23 -33 39 -41 98 -110 156
-182 31 -38 66 -79 79 -91 12 -12 22 -24 22 -28 0 -4 11 -19 25 -34 47 -51 38
-57 -88 -55 -157 2 -157 2 -157 13 0 6 -8 18 -17 28 -21 21 -91 105 -113 135
-8 11 -27 33 -42 49 -16 16 -28 33 -28 36 0 4 -18 26 -40 50 -22 23 -40 45
-40 48 0 3 -6 11 -12 18 -7 7 -29 32 -48 56 -19 23 -50 59 -67 79 -18 20 -33
42 -33 49 0 6 -5 12 -11 12 -6 0 -9 9 -6 20 3 11 2 20 -3 20 -4 0 -7 -62 -6
-137 2 -76 -2 -144 -7 -150 -5 -7 -5 -13 -1 -13 10 0 11 -265 1 -295 -6 -18
-15 -20 -97 -19 -49 0 -93 4 -97 7 -5 6 -7 793 -2 824 1 4 1 13 0 18 -3 14 -3
118 -1 130 1 6 2 13 1 18 -2 7 -3 87 -2 150 l1 32 94 0 c52 0 98 -4 102 -8z
m-880 -358 c27 -39 59 -83 70 -97 12 -15 22 -31 22 -35 0 -5 9 -20 21 -33 12
-13 21 -28 21 -33 0 -5 7 -12 16 -15 9 -4 14 -9 11 -12 -3 -3 4 -17 16 -31 12
-13 20 -27 19 -30 -2 -3 0 -9 5 -12 13 -9 67 -83 82 -112 7 -15 23 -37 35 -50
12 -13 37 -49 56 -79 35 -56 45 -70 68 -95 7 -8 10 -15 5 -15 -4 0 0 -5 10
-11 9 -5 17 -14 17 -20 0 -5 8 -19 18 -29 10 -11 28 -38 41 -60 l22 -40 -43
-1 c-341 -5 -577 -2 -584 6 -13 14 -12 858 1 867 17 13 21 10 71 -63z m-366
-259 c0 -13 -7 -20 -18 -20 -24 0 -32 8 -25 26 8 22 43 17 43 -6z m340 -614
c0 -7 7 -21 15 -32 15 -19 16 -19 14 1 -3 38 1 46 18 43 14 -2 16 -13 14 -63
-4 -88 -13 -91 -65 -20 -15 19 -15 19 -16 -12 0 -34 -14 -51 -26 -31 -8 12 -6
117 2 129 7 11 44 -2 44 -15z m216 -18 c-15 -23 -15 -27 0 -58 16 -30 18 -32
30 -16 13 19 34 14 34 -8 0 -9 -15 -14 -45 -14 -40 -1 -45 1 -51 24 -7 28 -20
21 -26 -13 -2 -16 -7 -20 -17 -14 -9 6 -14 29 -14 67 -1 53 1 59 20 62 18 3
20 -1 16 -20 -6 -22 -4 -21 21 6 33 35 57 23 32 -16z m580 29 c4 -4 15 -7 25
-7 10 0 16 -6 14 -12 -10 -31 -12 -78 -4 -84 16 -10 10 -24 -11 -24 -11 0 -20
4 -20 8 0 5 -7 17 -16 28 -15 19 -15 18 -11 -4 4 -15 -1 -26 -13 -32 -18 -9
-19 -5 -22 52 -2 46 1 66 11 74 16 12 36 13 47 1z m222 -121 c-4 -6 -13 -11
-20 -12 -19 -2 -15 126 3 137 11 7 15 -5 19 -54 3 -34 2 -66 -2 -71z m343 110
c1 -6 1 -13 1 -16 0 -3 7 -12 16 -19 14 -13 15 -12 10 7 -6 21 18 59 29 48 7
-7 7 -122 -1 -134 -8 -13 -36 -5 -36 10 0 5 -7 16 -15 25 -8 8 -12 20 -9 26 5
8 4 9 -4 2 -6 -5 -12 -23 -14 -38 -3 -25 -17 -39 -19 -19 0 4 -4 12 -8 17 -6
8 -7 66 -2 104 2 12 51 1 52 -13z m189 -3 c0 -10 -7 -14 -19 -10 -25 6 -60
-18 -57 -40 3 -20 32 -40 43 -30 4 5 1 12 -7 18 -13 7 -13 10 -1 18 7 5 22 6
32 4 14 -4 17 -11 12 -37 -7 -39 -7 -38 -37 -38 -64 0 -96 59 -61 109 23 33
95 37 95 6z m-1124 9 c6 -4 16 -16 22 -27 6 -11 12 -15 12 -8 0 23 32 43 69
43 39 0 53 -15 64 -65 3 -14 5 -11 6 9 1 35 26 55 66 56 37 0 60 -31 56 -75
-5 -54 -72 -75 -110 -34 -16 18 -20 18 -28 6 -4 -9 -15 -17 -23 -19 -8 -2 -17
-6 -20 -9 -3 -3 -20 -2 -38 3 -26 7 -34 15 -39 41 l-7 32 -7 -30 c-9 -33 -46
-53 -86 -47 -21 3 -23 9 -23 68 l0 64 38 0 c20 0 42 -4 48 -8z m542 -4 c-3 -7
-10 -14 -16 -14 -7 -1 -16 -2 -22 -3 -5 0 -7 -8 -4 -16 4 -8 9 -13 13 -11 4 3
13 0 21 -5 13 -8 13 -10 1 -18 -8 -5 -21 -7 -28 -4 -10 4 -14 0 -12 -13 4 -24
-8 -44 -24 -38 -8 3 -11 25 -10 67 1 34 2 63 2 65 1 1 19 2 42 2 28 0 39 -4
37 -12z m322 -53 c0 -51 -3 -65 -15 -65 -11 0 -15 13 -15 54 0 31 -5 58 -12
62 -7 5 -8 3 -3 -6 6 -10 3 -12 -14 -7 -20 5 -21 2 -18 -49 2 -46 0 -54 -15
-54 -13 0 -18 11 -20 53 -3 49 -5 52 -30 53 -40 1 -46 -7 -50 -61 -4 -67 -22
-64 -28 5 -3 38 -9 55 -19 55 -8 0 -16 6 -18 13 -4 9 26 12 126 12 l131 0 0
-65z m367 49 c0 -10 -7 -14 -19 -11 -30 8 -29 -8 2 -32 17 -12 29 -27 27 -34
-3 -15 -30 -37 -39 -31 -4 2 -9 0 -13 -6 -4 -7 -12 -7 -26 0 -27 15 -24 30 6
30 14 0 25 5 25 10 0 6 -5 10 -11 10 -22 0 -41 30 -35 55 5 21 12 25 45 25 28
0 38 -4 38 -16z m-1545 -89 c9 -12 0 -25 -18 -25 -8 0 -14 9 -14 20 0 20 19
23 32 5z"/>
<path d="M1805 987 c-4 -10 -5 -21 -1 -24 10 -10 18 4 13 24 -4 17 -4 17 -12
0z"/>
<path d="M1402 960 c2 -47 10 -56 32 -34 19 19 20 41 3 57 -26 25 -37 18 -35
-23z"/>
<path d="M1527 976 c-10 -24 4 -56 24 -56 26 0 49 48 28 61 -21 13 -46 11 -52
-5z"/>
<path d="M1666 972 c-4 -11 -4 -27 0 -36 8 -20 44 -21 45 -1 1 8 2 23 3 33 2
25 -41 29 -48 4z"/>
</g>
</svg>
